<?xml version="1.0" standalone="no"?>
<!DOCTYPE svg PUBLIC "-//W3C//DTD SVG 20010904//EN"
 "http://www.w3.org/TR/2001/REC-SVG-20010904/DTD/svg10.dtd">
<svg version="1.0" xmlns="http://www.w3.org/2000/svg"
 width="400.000000pt" height="400.000000pt" viewBox="0 0 400.000000 400.000000"
 preserveAspectRatio="xMidYMid meet">
<metadata>
Created by potrace 1.11, written by Peter Selinger 2001-2013
</metadata>
<g transform="translate(0.000000,400.000000) scale(0.100000,-0.100000)"
fill="#000000" stroke="none">
<path d="M1852 3550 c-231 -29 -461 -115 -652 -243 -93 -62 -272 -241 -329
-327 -90 -139 -143 -275 -166 -430 -23 -150 -27 -140 58 -140 l73 0 12 98 c28
217 116 395 277 558 242 246 544 367 915 367 372 0 694 -131 926 -376 154
-163 239 -340 266 -552 l12 -95 73 0 c85 0 81 -10 58 140 -73 482 -480 867
-1035 980 -120 25 -369 35 -488 20z"/>
<path d="M1403 1788 c3 -583 4 -606 25 -687 57 -215 177 -338 379 -388 103
-25 343 -22 446 6 240 64 355 219 387 522 5 52 10 331 10 622 l0 527 -129 0
-129 0 -5 -572 c-3 -463 -7 -584 -19 -629 -49 -185 -142 -254 -343 -254 -164
0 -255 47 -312 159 -48 95 -52 156 -53 749 l0 547 -131 0 -130 0 4 -602z"/>
<path d="M635 2296 c-90 -29 -131 -62 -164 -136 -20 -43 -21 -64 -21 -420 l0
-375 24 -52 c49 -104 140 -143 333 -143 l123 0 0 570 0 570 -127 -1 c-74 0
-145 -6 -168 -13z"/>
<path d="M3150 1740 l0 -570 115 0 c62 0 137 5 165 11 76 16 140 64 173 128
l27 55 0 375 0 376 -24 52 c-49 104 -140 143 -333 143 l-123 0 0 -570z"/>
</g>
</svg>
