<svg xmlns="http://www.w3.org/2000/svg" fill="none" viewBox="0 0 312 93"><path fill="#454F5B" d="M96.16 76V34.12h18c3.88 0 6.88 1.14 9 3.42 2.12 2.28 3.18 5.34 3.18 9.18s-1.06 6.9-3.18 9.18c-2.12 2.28-5.12 3.42-9 3.42h-11.22V76h-6.78zm6.78-22.62h10.8c1.72 0 3.06-.44 4.02-1.32.96-.92 1.44-2.22 1.44-3.9v-2.88c0-1.68-.48-2.96-1.44-3.84-.96-.92-2.3-1.38-4.02-1.38h-10.8v13.32zm41.125 23.34c-2.16 0-4.14-.38-5.94-1.14-1.76-.76-3.26-1.84-4.5-3.24-1.24-1.44-2.2-3.16-2.88-5.16-.68-2.04-1.02-4.3-1.02-6.78 0-2.48.34-4.72 1.02-6.72.68-2.04 1.64-3.76 2.88-5.16 1.24-1.44 2.74-2.54 4.5-3.3 1.8-.76 3.78-1.14 5.94-1.14 2.16 0 4.12.38 5.88 1.14 1.8.76 3.32 1.86 4.56 3.3 1.24 1.4 2.2 3.12 2.88 5.16.68 2 1.02 4.24 1.02 6.72 0 2.48-.34 4.74-1.02 6.78-.68 2-1.64 3.72-2.88 5.16-1.24 1.4-2.76 2.48-4.56 3.24-1.76.76-3.72 1.14-5.88 1.14zm0-5.4c2.24 0 4.04-.68 5.4-2.04 1.36-1.4 2.04-3.48 2.04-6.24v-5.28c0-2.76-.68-4.82-2.04-6.18-1.36-1.4-3.16-2.1-5.4-2.1s-4.04.7-5.4 2.1c-1.36 1.36-2.04 3.42-2.04 6.18v5.28c0 2.76.68 4.84 2.04 6.24 1.36 1.36 3.16 2.04 5.4 2.04zm40.948-.48h-.3c-.68 1.84-1.8 3.28-3.36 4.32-1.52 1.04-3.32 1.56-5.4 1.56-3.96 0-7.02-1.42-9.18-4.26-2.16-2.88-3.24-6.9-3.24-12.06s1.08-9.16 3.24-12c2.16-2.88 5.22-4.32 9.18-4.32 2.08 0 3.88.52 5.4 1.56 1.56 1 2.68 2.44 3.36 4.32h.3V31.6h6.54V76h-6.54v-5.16zm-7.08.24c2 0 3.68-.48 5.04-1.44 1.36-1 2.04-2.3 2.04-3.9V55.06c0-1.6-.68-2.88-2.04-3.84-1.36-1-3.04-1.5-5.04-1.5-2.28 0-4.1.74-5.46 2.22-1.36 1.44-2.04 3.36-2.04 5.76v5.4c0 2.4.68 4.34 2.04 5.82 1.36 1.44 3.18 2.16 5.46 2.16zm34.727 5.64c-2.24 0-4.24-.38-6-1.14-1.76-.76-3.24-1.84-4.44-3.24-1.2-1.44-2.12-3.16-2.76-5.16-.64-2.04-.96-4.3-.96-6.78 0-2.48.32-4.72.96-6.72.64-2.04 1.56-3.76 2.76-5.16 1.2-1.44 2.68-2.54 4.44-3.3 1.76-.76 3.76-1.14 6-1.14 3.12 0 5.68.7 7.68 2.1 2 1.4 3.46 3.26 4.38 5.58l-5.4 2.52c-.44-1.44-1.22-2.58-2.34-3.42-1.08-.88-2.52-1.32-4.32-1.32-2.4 0-4.22.76-5.46 2.28-1.2 1.48-1.8 3.42-1.8 5.82v5.58c0 2.4.6 4.36 1.8 5.88 1.24 1.48 3.06 2.22 5.46 2.22 1.92 0 3.44-.46 4.56-1.38 1.16-.96 2.08-2.22 2.76-3.78l4.98 2.64c-1.04 2.56-2.6 4.52-4.68 5.88-2.08 1.36-4.62 2.04-7.62 2.04zm41.086-.72c-1.72 0-3.04-.48-3.96-1.44-.92-1-1.48-2.26-1.68-3.78h-.3c-.6 1.96-1.7 3.44-3.3 4.44-1.6 1-3.54 1.5-5.82 1.5-3.24 0-5.74-.84-7.5-2.52-1.72-1.68-2.58-3.94-2.58-6.78 0-3.12 1.12-5.46 3.36-7.02 2.28-1.56 5.6-2.34 9.96-2.34h5.64v-2.64c0-1.92-.52-3.4-1.56-4.44-1.04-1.04-2.66-1.56-4.86-1.56-1.84 0-3.34.4-4.5 1.2-1.16.8-2.14 1.82-2.94 3.06l-3.9-3.54c1.04-1.76 2.5-3.2 4.38-4.32 1.88-1.16 4.34-1.74 7.38-1.74 4.04 0 7.14.94 9.3 2.82 2.16 1.88 3.24 4.58 3.24 8.1v15.66h3.3V76h-3.66zm-13.2-4.26c2.04 0 3.72-.44 5.04-1.32 1.32-.92 1.98-2.14 1.98-3.66v-4.5h-5.52c-4.52 0-6.78 1.4-6.78 4.2v1.08c0 1.4.46 2.46 1.38 3.18.96.68 2.26 1.02 3.9 1.02zm32.87 4.98c-2.96 0-5.44-.52-7.44-1.56s-3.74-2.48-5.22-4.32l4.2-3.84c1.16 1.4 2.44 2.5 3.84 3.3 1.44.76 3.1 1.14 4.98 1.14 1.92 0 3.34-.36 4.26-1.08.96-.76 1.44-1.8 1.44-3.12 0-1-.34-1.84-1.02-2.52-.64-.72-1.78-1.18-3.42-1.38l-2.88-.36c-3.2-.4-5.72-1.32-7.56-2.76-1.8-1.48-2.7-3.66-2.7-6.54 0-1.52.28-2.86.84-4.02.56-1.2 1.34-2.2 2.34-3 1.04-.84 2.26-1.48 3.66-1.92 1.44-.44 3.02-.66 4.74-.66 2.8 0 5.08.44 6.84 1.32 1.8.88 3.4 2.1 4.8 3.66l-4.02 3.84c-.8-.96-1.86-1.78-3.18-2.46-1.28-.72-2.76-1.08-4.44-1.08-1.8 0-3.14.36-4.02 1.08-.84.72-1.26 1.66-1.26 2.82 0 1.2.38 2.1 1.14 2.7.76.6 1.98 1.04 3.66 1.32l2.88.36c3.44.52 5.94 1.54 7.5 3.06 1.6 1.48 2.4 3.48 2.4 6 0 1.52-.3 2.9-.9 4.14-.56 1.2-1.38 2.24-2.46 3.12-1.08.88-2.38 1.56-3.9 2.04s-3.22.72-5.1.72zm27.678-.72c-2.28 0-4-.58-5.16-1.74-1.16-1.2-1.74-2.88-1.74-5.04V50.14h-4.86V44.8h2.64c1.08 0 1.82-.24 2.22-.72.44-.48.66-1.26.66-2.34v-5.46h5.88v8.52h6.54v5.34h-6.54v20.52h6.06V76h-5.7z"/><path fill="#0094DF" d="M34.58 33.12v25.8c0 3.56.68 6.24 2.04 8.04 1.36 1.8 3.68 2.7 6.96 2.7s5.6-.9 6.96-2.7c1.36-1.8 2.04-4.48 2.04-8.04v-25.8h6.66v24.72c0 3.08-.28 5.74-.84 7.98-.56 2.24-1.46 4.1-2.7 5.58-1.24 1.44-2.86 2.52-4.86 3.24-1.96.72-4.38 1.08-7.26 1.08s-5.32-.36-7.32-1.08c-1.96-.72-3.56-1.8-4.8-3.24-1.24-1.48-2.14-3.34-2.7-5.58s-.84-4.9-.84-7.98V33.12h6.66z"/><g clip-path="url(#clip0)"><g fill="#454F5B" clip-path="url(#clip1)"><path d="M44.0094 4c-18.6118-.00442-33.7037 12.9244-33.7089 28.8773.6204-.0735 1.246-.111 1.8722-.1124h1.8722C14.0449 18.5847 27.4564 7.08912 44 7.08912S73.9551 18.5847 73.9551 32.7649v.0161h1.8722c.6262.0014 1.2518.0389 1.8722.1123C77.7046 16.9404 62.6211 4.00441 44.0094 4zM12.0791 35.1881c-2.95807 0-7.90066.8826-7.90066 6.772v15.0845c0 5.8894 4.94259 6.772 7.90066 6.772h4.1188V35.1881h-4.1188zM75.9209 35.1881h-4.1188v28.6125h4.1188c2.9581 0 7.9007-.8826 7.9007-6.772V41.944c0-5.8733-4.9426-6.7559-7.9007-6.7559z"/></g></g><defs><clipPath id="clip0"><path fill="#fff" d="M0 0h86v93H0z"/></clipPath><clipPath id="clip1"><path fill="#fff" d="M0 0h98v84H0z" transform="translate(-5 4)"/></clipPath></defs></svg>